<svg width="20" height="20" viewBox="0 0 20 20" fill="none" xmlns="http://www.w3.org/2000/svg">
<path d="M17.4544 6.92104C17.446 6.28989 17.3279 5.66502 17.1053 5.07438C16.9122 4.57617 16.6174 4.12371 16.2396 3.7459C15.8618 3.36809 15.4093 3.07325 14.9111 2.88021C14.328 2.66134 13.7121 2.54299 13.0894 2.53021C12.2878 2.49438 12.0336 2.48438 9.99859 2.48438C7.96359 2.48438 7.70276 2.48438 6.90693 2.53021C6.28456 2.54309 5.66888 2.66143 5.08609 2.88021C4.58781 3.07312 4.13528 3.36791 3.75745 3.74574C3.37963 4.12356 3.08483 4.57609 2.89193 5.07438C2.67262 5.65699 2.55453 6.2728 2.54276 6.89521C2.50693 7.69771 2.49609 7.95188 2.49609 9.98688C2.49609 12.0219 2.49609 12.2819 2.54276 13.0785C2.55526 13.7019 2.67276 14.3169 2.89193 14.901C3.08516 15.3992 3.38017 15.8515 3.75812 16.2292C4.13607 16.6068 4.58865 16.9015 5.08693 17.0944C5.66812 17.322 6.2839 17.4489 6.90776 17.4694C7.71026 17.5052 7.96443 17.516 9.99943 17.516C12.0344 17.516 12.2953 17.516 13.0911 17.4694C13.7137 17.4571 14.3297 17.339 14.9128 17.1202C15.4108 16.9269 15.8632 16.632 16.241 16.2542C16.6187 15.8765 16.9137 15.4241 17.1069 14.926C17.3261 14.3427 17.4436 13.7277 17.4561 13.1035C17.4919 12.3019 17.5028 12.0477 17.5028 10.0119C17.5011 7.97687 17.5011 7.71854 17.4544 6.92104ZM9.99359 13.8352C7.86526 13.8352 6.14109 12.111 6.14109 9.98271C6.14109 7.85437 7.86526 6.13021 9.99359 6.13021C11.0153 6.13021 11.9952 6.5361 12.7177 7.25858C13.4402 7.98106 13.8461 8.96096 13.8461 9.98271C13.8461 11.0045 13.4402 11.9844 12.7177 12.7068C11.9952 13.4293 11.0153 13.8352 9.99359 13.8352ZM13.9994 6.88604C13.8814 6.88615 13.7646 6.86299 13.6555 6.81788C13.5465 6.77278 13.4474 6.70661 13.364 6.62317C13.2805 6.53973 13.2144 6.44066 13.1693 6.33162C13.1241 6.22257 13.101 6.10571 13.1011 5.98771C13.1011 5.86979 13.1243 5.75303 13.1694 5.64409C13.2146 5.53515 13.2807 5.43616 13.3641 5.35279C13.4475 5.26941 13.5465 5.20327 13.6554 5.15814C13.7643 5.11302 13.8811 5.08979 13.999 5.08979C14.1169 5.08979 14.2337 5.11302 14.3426 5.15814C14.4516 5.20327 14.5506 5.26941 14.6339 5.35279C14.7173 5.43616 14.7835 5.53515 14.8286 5.64409C14.8737 5.75303 14.8969 5.86979 14.8969 5.98771C14.8969 6.48438 14.4953 6.88604 13.9994 6.88604Z" fill="#FFF8E6"/>
<path d="M9.99469 12.4855C11.3768 12.4855 12.4972 11.3651 12.4972 9.98297C12.4972 8.60088 11.3768 7.48047 9.99469 7.48047C8.6126 7.48047 7.49219 8.60088 7.49219 9.98297C7.49219 11.3651 8.6126 12.4855 9.99469 12.4855Z" fill="#FFF8E6"/>
</svg>
