<svg width="20" height="20" viewBox="0 0 20 20" fill="none" xmlns="http://www.w3.org/2000/svg">
<path d="M6.50668 8.05386C6.50668 7.35331 6.73477 6.75654 7.19094 6.26356C7.64711 5.77058 8.20104 5.52409 8.85272 5.52409C9.40665 5.52409 9.82209 5.66679 10.0991 5.9522C10.376 6.23761 10.5145 6.58789 10.5145 7.00303C10.5145 7.2625 10.4656 7.58683 10.3679 7.97603C10.2375 8.33928 10.0746 8.78037 9.87911 9.29929C9.68361 9.79228 9.53698 10.1944 9.43923 10.5058C9.27631 11.0247 9.3985 11.4723 9.8058 11.8485C10.2131 12.2248 10.7426 12.4129 11.3943 12.4129C12.5347 12.4129 13.4715 11.9004 14.2046 10.8755C14.9378 9.85066 15.3043 8.61171 15.3043 7.15871C15.3043 6.04302 14.8563 5.13489 13.9602 4.43434C13.0642 3.73378 11.8016 3.38351 10.1724 3.38351C8.34767 3.38351 6.87325 3.84406 5.7491 4.76515C4.62496 5.68625 4.06289 6.79546 4.06289 8.09278C4.06289 8.84523 4.33985 9.49389 4.89377 10.0388C5.08928 10.1944 5.15445 10.3761 5.08928 10.5836C5.02411 10.7134 4.94265 10.9728 4.8449 11.362C4.77973 11.4918 4.69013 11.5761 4.57608 11.615C4.46204 11.6539 4.33985 11.6604 4.20951 11.6345C3.36233 11.3491 2.72695 10.8691 2.30335 10.1944C1.87976 9.51984 1.66797 8.74145 1.66797 7.85927C1.66797 7.28844 1.78201 6.71762 2.0101 6.1468C2.23819 5.57598 2.59661 5.02462 3.08537 4.49272C3.57413 3.96081 4.16064 3.48729 4.8449 3.07215C5.52916 2.65701 6.36005 2.32619 7.33757 2.0797C8.31508 1.83321 9.37406 1.70996 10.5145 1.70996C11.6549 1.70996 12.7221 1.86564 13.7159 2.177C14.7097 2.48835 15.5406 2.9035 16.2085 3.42243C16.8765 3.94135 17.3978 4.54461 17.7726 5.23219C18.1473 5.91977 18.3346 6.62681 18.3346 7.35331C18.3346 9.29929 17.7155 10.908 16.4774 12.1793C15.2392 13.4507 13.6426 14.0864 11.6875 14.0864C11.0358 14.0864 10.4249 13.9697 9.85467 13.7361C9.28446 13.5026 8.8853 13.2172 8.65722 12.8799C8.16846 14.3848 7.8752 15.2799 7.77745 15.5654C7.51678 16.3438 6.93027 17.2519 6.01792 18.2897H5.18703C4.99153 16.9665 5.02411 15.8767 5.28478 15.0205L6.89769 9.64957C6.63701 9.20848 6.50668 8.67658 6.50668 8.05386Z" fill="#FFF8E6"/>
</svg>
